{"title":"Det som ingen ved[2008].x264.DTS.mkv","uid":5394116,"size":1995381868,"categoryP":"video","categoryS":"movies","magnet":"?xt=urn:btih:ffea451d5be41efc0ba70024e35c9537c6a4bf52&amp;dn=Det+som+ingen+ved%5B2008%5D.x264.DTS.mkv&amp;tr=udp%3A%2F%2Ftracker.openbittorrent.com%3A80&amp;tr=udp%3A%2F%2Fopen.demonii.com%3A1337&amp;tr=udp%3A%2F%2Ftracker.coppersurfer.tk%3A6969&amp;tr=udp%3A%2F%2Fexodus.desync.com%3A6969","seeders":1,"leechers":1,"uploader":"Zen_Bud","files":-1,"time":1267172150,"description":"General\nComplete name                    : Det som ingen ved.mkv\nFormat                           : Matroska\nFile size                        : 1.86 GiB\nDuration                         : 1h 34mn\nOverall bit rate                 : 2 815 Kbps\n\n\nVideo\nID                               : 1\nFormat                           : AVC\nDuration                         : 1h 34mn\nBit rate                         : 2 005 Kbps\nNominal bit rate                 : 2 039 Kbps\nWidth                            : 720 pixels\nHeight                           : 436 pixels\nDisplay aspect ratio             : 2.35:1\nFrame rate                       : 25.000 fps\nResolution                       : 8 bits\nColorimetry                      : 4:2:0\nScan type                        : Progressive\nBits/(Pixel*Frame)               : 0.255\nStream size                      : 1.32 GiB (71%)\nWriting library                  : x264 core 79\n\nAudio\nID                               : 2\nFormat                           : DTS\nFormat/Info                      : Digital Theater Systems\nCodec ID                         : A_DTS\nDuration                         : 1h 34mn\nBit rate mode                    : Constant\nBit rate                         : 755 Kbps\nChannel(s)                       : 6 channels\nChannel positions                : Front: L C R, Surround: L R, LFE\nSampling rate                    : 48.0 KHz\nResolution                       : 16 bits\nStream size                      : 510 MiB (27%)\nLanguage                         : Danish\n\n\nText #2\nLanguage                         : Danish\n\nText #3\nLanguage                         : Swedish\n\nText #4\nLanguage                         : Norwegian\n\n","torrent":{"xt":"urn:btih:ffea451d5be41efc0ba70024e35c9537c6a4bf52","amp;dn":"Det+som+ingen+ved%5B2008%5D.x264.DTS.mkv","amp;tr":["udp%3A%2F%2Ftracker.openbittorrent.com%3A80","udp%3A%2F%2Fopen.demonii.com%3A1337","udp%3A%2F%2Ftracker.coppersurfer.tk%3A6969","udp%3A%2F%2Fexodus.desync.com%3A6969"],"infoHash":"ffea451d5be41efc0ba70024e35c9537c6a4bf52","infoHashBuffer":{"type":"Buffer","data":[255,234,69,29,91,228,30,252,11,167,0,36,227,92,149,55,198,164,191,82]},"announce":[],"urlList":[]}}